<?xml version="1.0" standalone="no"?><!DOCTYPE svg PUBLIC "-//W3C//DTD SVG 1.1//EN" "http://www.w3.org/Graphics/SVG/1.1/DTD/svg11.dtd"><svg t="1735290534566" class="icon" viewBox="0 0 1024 1024" version="1.1" xmlns="http://www.w3.org/2000/svg" p-id="7448" xmlns:xlink="http://www.w3.org/1999/xlink" width="200" height="200"><path d="M453.248 241.408c11.264 0 21.12 3.968 29.632 11.968a39.04 39.04 0 0 1 12.672 29.44 39.04 39.04 0 0 1-12.672 29.568 41.792 41.792 0 0 1-29.632 11.968 41.28 41.28 0 0 1-42.24-41.472 41.28 41.28 0 0 1 42.304-41.472h-0.064zM128 514.304c0-32 2.176-62.848 6.592-92.672a549.12 549.12 0 0 1 19.712-86.208l705.92 385.472a521.984 521.984 0 0 1-59.136 114.304 438.144 438.144 0 0 1-80.896 88.96 357.12 357.12 0 0 1-98.24 58.176 300.928 300.928 0 0 1-110.4 20.736c-52.672 0-102.336-12.8-148.992-38.272a396.544 396.544 0 0 1-122.24-104.704c-34.752-44.224-62.208-96-82.24-155.328A590.72 590.72 0 0 1 128 514.304zM862.144 314.24c10.688 30.72 18.944 62.848 24.96 96.32A592 592 0 0 1 896 514.304c0 55.36-7.232 108.544-21.632 159.552L578.24 511.552l283.904-197.312zM534.08 487.616L171.2 289.28a477.44 477.44 0 0 1 59.264-107.456 432 432 0 0 1 79.424-83.008A353.92 353.92 0 0 1 404.864 44.992 299.264 299.264 0 0 1 511.552 25.6c35.712 0 69.824 5.824 102.4 17.536 32.64 11.648 63.168 28.16 91.712 49.28 28.48 21.248 54.4 46.72 77.504 76.544 23.232 29.824 43.264 62.912 60.16 99.2L532.224 484.736l1.92 2.816z m-12.16-62.72l200.192-131.84a259.008 259.008 0 0 0-42.304-77.44 193.536 193.536 0 0 0-27.264-28.672 206.784 206.784 0 0 0-36.224-24.896 195.84 195.84 0 0 0-45.12-17.472c-16.64-4.352-34.944-6.464-54.976-6.464-18.816 0-36.032 2.304-51.712 6.912a208.448 208.448 0 0 0-79.36 43.328c-11.008 9.536-20.864 19.2-29.696 29.056a313.6 313.6 0 0 0-50.752 78.4l217.152 129.088z m48.832-183.488a41.28 41.28 0 0 1 42.24 41.472 41.28 41.28 0 0 1-42.304 41.472 41.28 41.28 0 0 1-42.24-41.472 41.28 41.28 0 0 1 42.304-41.472z" fill="#1296db" p-id="7449"></path></svg>